<svg xmlns="http://www.w3.org/2000/svg" viewBox="0 0 780 360">
  <defs>
    <linearGradient id="btnGrad" x1="0%" y1="0%" x2="0%" y2="100%">
      <stop offset="0%" stop-color="#ffd86b"/>
      <stop offset="100%" stop-color="#ffb100"/>
    </linearGradient>
    <linearGradient id="shine" x1="0%" y1="0%" x2="100%" y2="0%">
      <stop offset="0%" stop-color="#ffffff" stop-opacity="0.65"/>
      <stop offset="100%" stop-color="#ffffff" stop-opacity="0.05"/>
    </linearGradient>
    <filter id="shadow" x="-20%" y="-20%" width="140%" height="140%">
      <feDropShadow dx="0" dy="8" stdDeviation="10" flood-color="#c27c00" flood-opacity="0.7"/>
    </filter>
  </defs>
  <rect x="10" y="10" rx="44" ry="44" width="760" height="340" fill="url(#btnGrad)" stroke="#f5e3a0" stroke-width="6" filter="url(#shadow)"/>
  <rect x="26" y="26" rx="32" ry="32" width="728" height="306" fill="none" stroke="#ffffff" stroke-opacity="0.35" stroke-width="4"/>
  <rect x="40" y="34" rx="22" ry="22" width="540" height="80" fill="url(#shine)"/>
  <g transform="translate(110 120) scale(0.9)">
    <path d="M90 220 h120 a18 18 0 0 1 18 18 v64 h-156 v-64 a18 18 0 0 1 18-18z" fill="#2f435c" stroke="#1a2636" stroke-width="6"/>
    <path d="M220 220 h120 a18 18 0 0 1 18 18 v64 h-156 v-64 a18 18 0 0 1 18-18z" fill="#2f435c" stroke="#1a2636" stroke-width="6"/>
    <path d="M100 120 h260 a26 26 0 0 1 26 26 v96 h-312 v-96 a26 26 0 0 1 26-26z" fill="#415c7c" stroke="#1e2b3d" stroke-width="8"/>
    <rect x="138" y="144" width="184" height="72" rx="20" fill="#5b6c92" stroke="#20374f" stroke-width="6"/>
    <rect x="168" y="158" width="124" height="46" rx="12" fill="#e6d354"/>
    <path d="M60 126 l-46 46 24 44 58-38z" fill="#d41967" stroke="#1a1026" stroke-width="6"/>
    <path d="M400 126 l46 46-24 44-58-38z" fill="#d41967" stroke="#1a1026" stroke-width="6"/>
    <circle cx="64" cy="176" r="58" fill="#d41967" stroke="#1a1026" stroke-width="8"/>
    <circle cx="446" cy="176" r="58" fill="#d41967" stroke="#1a1026" stroke-width="8"/>
    <rect x="40" y="180" width="48" height="84" rx="10" fill="#2f435c"/>
    <rect x="422" y="180" width="48" height="84" rx="10" fill="#2f435c"/>
    <rect x="118" y="80" width="224" height="94" rx="24" fill="#d41967" stroke="#1a1026" stroke-width="8"/>
    <rect x="144" y="94" width="172" height="68" rx="18" fill="#e6aa3c" stroke="#23140d" stroke-width="6"/>
    <rect x="172" y="112" width="116" height="32" rx="12" fill="#f6e5ae"/>
    <path d="M180 16 l-68 70 32 32 56-66z" fill="#d41967" stroke="#1a1026" stroke-width="6"/>
    <path d="M284 16 l68 70-32 32-56-66z" fill="#d41967" stroke="#1a1026" stroke-width="6"/>
    <rect x="188" y="0" width="96" height="86" rx="28" fill="#d41967" stroke="#1a1026" stroke-width="8"/>
    <rect x="212" y="18" width="52" height="52" rx="16" fill="#e6aa3c" stroke="#23140d" stroke-width="6"/>
    <rect x="230" y="30" width="28" height="28" rx="10" fill="#f6e5ae"/>
    <circle cx="230" cy="200" r="22" fill="#e6b13c" stroke="#1a2636" stroke-width="5"/>
    <text x="221" y="210" font-family="'DejaVu Sans', 'Segoe UI', sans-serif" font-size="28" font-weight="700" fill="#21304a">C</text>
    <g fill="#e6b13c" stroke="#1a1026" stroke-width="5">
      <circle cx="160" cy="220" r="12"/>
      <circle cx="320" cy="220" r="12"/>
    </g>
  </g>
  <g font-family="'Titillium Web','Oxanium','Segoe UI',sans-serif" font-weight="800" font-size="82" fill="#1470a6" stroke="#e8ffff" stroke-width="3" paint-order="stroke" text-anchor="start">
    <text x="330" y="190">GAME</text>
    <text x="330" y="280">DOWNLOAD</text>
  </g>
</svg>
