<svg xmlns="http://www.w3.org/2000/svg" viewBox="0 0 1024 768">
  <defs>
    <linearGradient id="botPink" x1="0%" y1="0%" x2="100%" y2="100%">
      <stop offset="0%" stop-color="#ff4d95"/>
      <stop offset="100%" stop-color="#ff8a4d"/>
    </linearGradient>
    <linearGradient id="botGold" x1="0%" y1="0%" x2="0%" y2="100%">
      <stop offset="0%" stop-color="#ffd771"/>
      <stop offset="100%" stop-color="#d9982f"/>
    </linearGradient>
    <filter id="botShadow" x="-20%" y="-20%" width="140%" height="140%">
      <feDropShadow dx="0" dy="14" stdDeviation="14" flood-color="#120813" flood-opacity="0.55"/>
    </filter>
  </defs>
  <g filter="url(#botShadow)">
    <rect x="190" y="620" width="180" height="100" rx="22" ry="22" fill="#7b7b85" stroke="#27212d" stroke-width="6"/>
    <rect x="420" y="620" width="180" height="100" rx="22" ry="22" fill="#7b7b85" stroke="#27212d" stroke-width="6"/>
    <rect x="210" y="480" width="150" height="160" rx="30" ry="30" fill="url(#botPink)" stroke="#271624" stroke-width="8"/>
    <rect x="430" y="480" width="150" height="160" rx="30" ry="30" fill="url(#botPink)" stroke="#271624" stroke-width="8"/>
    <rect x="240" y="560" width="90" height="50" rx="10" ry="10" fill="url(#botGold)"/>
    <rect x="450" y="560" width="90" height="50" rx="10" ry="10" fill="url(#botGold)"/>
    <rect x="200" y="300" width="410" height="220" rx="60" ry="60" fill="url(#botPink)" stroke="#271624" stroke-width="10"/>
    <path d="M200 360 l-50 70 44 70 70-78z" fill="url(#botPink)" stroke="#271624" stroke-width="8"/>
    <path d="M610 360 l50 70-44 70-70-78z" fill="url(#botPink)" stroke="#271624" stroke-width="8"/>
    <rect x="280" y="330" width="250" height="110" rx="34" ry="34" fill="url(#botGold)" stroke="#371d12" stroke-width="8"/>
    <rect x="320" y="360" width="170" height="66" rx="20" ry="20" fill="#ffeec5"/>
    <rect x="310" y="210" width="190" height="130" rx="40" ry="40" fill="url(#botPink)" stroke="#271624" stroke-width="10"/>
    <rect x="340" y="230" width="130" height="80" rx="24" ry="24" fill="url(#botGold)" stroke="#371d12" stroke-width="6"/>
    <rect x="360" y="248" width="92" height="46" rx="18" ry="18" fill="#ffeec5"/>
    <polygon points="270,220 220,120 260,106 330,200" fill="url(#botPink)" stroke="#271624" stroke-width="8"/>
    <polygon points="540,220 590,120 550,106 480,200" fill="url(#botPink)" stroke="#271624" stroke-width="8"/>
    <rect x="118" y="340" width="110" height="200" rx="28" ry="28" fill="url(#botPink)" stroke="#271624" stroke-width="10"/>
    <rect x="620" y="340" width="110" height="200" rx="28" ry="28" fill="url(#botPink)" stroke="#271624" stroke-width="10"/>
    <rect x="80" y="420" width="120" height="120" rx="22" ry="22" fill="#7b7b85" stroke="#27212d" stroke-width="8"/>
    <rect x="650" y="420" width="120" height="120" rx="22" ry="22" fill="#7b7b85" stroke="#27212d" stroke-width="8"/>
    <circle cx="200" cy="320" r="60" fill="url(#botPink)" stroke="#271624" stroke-width="8"/>
    <circle cx="640" cy="320" r="60" fill="url(#botPink)" stroke="#271624" stroke-width="8"/>
    <circle cx="185" cy="300" r="12" fill="url(#botGold)" stroke="#271624" stroke-width="4"/>
    <circle cx="655" cy="300" r="12" fill="url(#botGold)" stroke="#271624" stroke-width="4"/>
    <rect x="300" y="470" width="210" height="42" rx="10" ry="10" fill="url(#botGold)" stroke="#371d12" stroke-width="6"/>
    <g fill="url(#botGold)" stroke="#271624" stroke-width="5">
      <circle cx="280" cy="500" r="14"/>
      <circle cx="340" cy="500" r="14"/>
      <circle cx="470" cy="500" r="14"/>
      <circle cx="530" cy="500" r="14"/>
    </g>
  </g>
</svg>
